ModelForces
version=1
nRows=4
nColumns=203
inDegrees=no

This file contains the forces exerted on a model during a simulation.

A force is a generalized force, meaning that it can be either a force (N) or a torque (Nm).

Units are S.I. units (second, meters, Newtons, ...)
Angles are in degrees.

endheader
time	glut_med1_r	glut_med2_r	glut_med3_r	glut_min1_r	glut_min2_r	glut_min3_r	semimem_r	semiten_r	bifemlh_r	bifemsh_r	sar_r	add_long_r	add_brev_r	add_mag1_r	add_mag2_r	add_mag3_r	tfl_r	pect_r	grac_r	glut_max1_r	glut_max2_r	glut_max3_r	iliacus_r	psoas_r	quad_fem_r	gem_r	peri_r	rect_fem_r	vas_med_r	vas_int_r	vas_lat_r	med_gas_r	lat_gas_r	soleus_r	tib_post_r	flex_dig_r	flex_hal_r	tib_ant_r	per_brev_r	per_long_r	per_tert_r	ext_dig_r	ext_hal_r	glut_med1_l	glut_med2_l	glut_med3_l	glut_min1_l	glut_min2_l	glut_min3_l	semimem_l	semiten_l	bifemlh_l	bifemsh_l	sar_l	add_long_l	add_brev_l	add_mag1_l	add_mag2_l	add_mag3_l	tfl_l	pect_l	grac_l	glut_max1_l	glut_max2_l	glut_max3_l	iliacus_l	psoas_l	quad_fem_l	gem_l	peri_l	rect_fem_l	vas_med_l	vas_int_l	vas_lat_l	med_gas_l	lat_gas_l	soleus_l	tib_post_l	flex_dig_l	flex_hal_l	tib_ant_l	per_brev_l	per_long_l	per_tert_l	ext_dig_l	ext_hal_l	ercspn_r	ercspn_l	intobl_r	intobl_l	extobl_r	extobl_l	femur_lat_meniscii_l.femur_lat_l.force.X	femur_lat_meniscii_l.femur_lat_l.force.Y	femur_lat_meniscii_l.femur_lat_l.force.Z	femur_lat_meniscii_l.femur_lat_l.torque.X	femur_lat_meniscii_l.femur_lat_l.torque.Y	femur_lat_meniscii_l.femur_lat_l.torque.Z	femur_lat_meniscii_l.meniscus_lat_l.force.X	femur_lat_meniscii_l.meniscus_lat_l.force.Y	femur_lat_meniscii_l.meniscus_lat_l.force.Z	femur_lat_meniscii_l.meniscus_lat_l.torque.X	femur_lat_meniscii_l.meniscus_lat_l.torque.Y	femur_lat_meniscii_l.meniscus_lat_l.torque.Z	femur_med_meniscii_l.femur_med_l.force.X	femur_med_meniscii_l.femur_med_l.force.Y	femur_med_meniscii_l.femur_med_l.force.Z	femur_med_meniscii_l.femur_med_l.torque.X	femur_med_meniscii_l.femur_med_l.torque.Y	femur_med_meniscii_l.femur_med_l.torque.Z	femur_med_meniscii_l.meniscus_med_l.force.X	femur_med_meniscii_l.meniscus_med_l.force.Y	femur_med_meniscii_l.meniscus_med_l.force.Z	femur_med_meniscii_l.meniscus_med_l.torque.X	femur_med_meniscii_l.meniscus_med_l.torque.Y	femur_med_meniscii_l.meniscus_med_l.torque.Z	femur_lat_meniscii_r.femur_lat_r.force.X	femur_lat_meniscii_r.femur_lat_r.force.Y	femur_lat_meniscii_r.femur_lat_r.force.Z	femur_lat_meniscii_r.femur_lat_r.torque.X	femur_lat_meniscii_r.femur_lat_r.torque.Y	femur_lat_meniscii_r.femur_lat_r.torque.Z	femur_lat_meniscii_r.meniscus_lat_r.force.X	femur_lat_meniscii_r.meniscus_lat_r.force.Y	femur_lat_meniscii_r.meniscus_lat_r.force.Z	femur_lat_meniscii_r.meniscus_lat_r.torque.X	femur_lat_meniscii_r.meniscus_lat_r.torque.Y	femur_lat_meniscii_r.meniscus_lat_r.torque.Z	femur_med_meniscii_r.femur_med_r.force.X	femur_med_meniscii_r.femur_med_r.force.Y	femur_med_meniscii_r.femur_med_r.force.Z	femur_med_meniscii_r.femur_med_r.torque.X	femur_med_meniscii_r.femur_med_r.torque.Y	femur_med_meniscii_r.femur_med_r.torque.Z	femur_med_meniscii_r.meniscus_med_r.force.X	femur_med_meniscii_r.meniscus_med_r.force.Y	femur_med_meniscii_r.meniscus_med_r.force.Z	femur_med_meniscii_r.meniscus_med_r.torque.X	femur_med_meniscii_r.meniscus_med_r.torque.Y	femur_med_meniscii_r.meniscus_med_r.torque.Z	femur_med_tibia_l.tibia_upper_l.force.X	femur_med_tibia_l.tibia_upper_l.force.Y	femur_med_tibia_l.tibia_upper_l.force.Z	femur_med_tibia_l.tibia_upper_l.torque.X	femur_med_tibia_l.tibia_upper_l.torque.Y	femur_med_tibia_l.tibia_upper_l.torque.Z	femur_med_tibia_l.femur_med_l.force.X	femur_med_tibia_l.femur_med_l.force.Y	femur_med_tibia_l.femur_med_l.force.Z	femur_med_tibia_l.femur_med_l.torque.X	femur_med_tibia_l.femur_med_l.torque.Y	femur_med_tibia_l.femur_med_l.torque.Z	femur_lat_tibia_l.tibia_upper_l.force.X	femur_lat_tibia_l.tibia_upper_l.force.Y	femur_lat_tibia_l.tibia_upper_l.force.Z	femur_lat_tibia_l.tibia_upper_l.torque.X	femur_lat_tibia_l.tibia_upper_l.torque.Y	femur_lat_tibia_l.tibia_upper_l.torque.Z	femur_lat_tibia_l.femur_lat_l.force.X	femur_lat_tibia_l.femur_lat_l.force.Y	femur_lat_tibia_l.femur_lat_l.force.Z	femur_lat_tibia_l.femur_lat_l.torque.X	femur_lat_tibia_l.femur_lat_l.torque.Y	femur_lat_tibia_l.femur_lat_l.torque.Z	femur_med_tibia_r.tibia_upper_r.force.X	femur_med_tibia_r.tibia_upper_r.force.Y	femur_med_tibia_r.tibia_upper_r.force.Z	femur_med_tibia_r.tibia_upper_r.torque.X	femur_med_tibia_r.tibia_upper_r.torque.Y	femur_med_tibia_r.tibia_upper_r.torque.Z	femur_med_tibia_r.femur_med_r.force.X	femur_med_tibia_r.femur_med_r.force.Y	femur_med_tibia_r.femur_med_r.force.Z	femur_med_tibia_r.femur_med_r.torque.X	femur_med_tibia_r.femur_med_r.torque.Y	femur_med_tibia_r.femur_med_r.torque.Z	femur_lat_tibia_r.tibia_upper_r.force.X	femur_lat_tibia_r.tibia_upper_r.force.Y	femur_lat_tibia_r.tibia_upper_r.force.Z	femur_lat_tibia_r.tibia_upper_r.torque.X	femur_lat_tibia_r.tibia_upper_r.torque.Y	femur_lat_tibia_r.tibia_upper_r.torque.Z	femur_lat_tibia_r.femur_lat_r.force.X	femur_lat_tibia_r.femur_lat_r.force.Y	femur_lat_tibia_r.femur_lat_r.force.Z	femur_lat_tibia_r.femur_lat_r.torque.X	femur_lat_tibia_r.femur_lat_r.torque.Y	femur_lat_tibia_r.femur_lat_r.torque.Z	aACL_R	pACL_R	aPCL_R	pPCL_R	aMCL_R	mMCL_R	pMCL_R	aLCL_R	mLCL_R	pLCL_R	aPCL_L	pPCL_L	aMCL_L	aLCL_L
      0.15984897	     11.72503737	      8.51677369	      9.16242651	      3.92905258	      4.56186306	      4.95472936	      0.00000000	    158.76816954	    141.74736866	    287.37477622	    128.31262909	      8.47832463	      6.09710077	      4.37730840	      3.71533665	      6.27246578	      5.56946691	      3.31690287	     95.27711511	      5.49961629	      8.36669734	      6.28942129	     27.86269631	     18.88903326	      5.40515345	      3.70807855	      7.06452340	     91.90220472	     51.32874902	     36.15461901	     56.43932940	      0.00000000	      0.00000000	      0.00000000	      0.00000000	      0.00000000	      0.00000000	     46.51537174	      3.40953781	      5.08159062	     31.43502155	     41.72161781	     10.38901219	     11.72503737	      8.51677369	      9.16242651	      3.92905258	      4.56186306	      4.95472936	     14.58741602	      6.31936555	     12.62429123	     10.75850834	      2.24162267	      8.47832463	      6.09710077	      4.37730840	      3.71533665	      6.27246578	      5.51322983	      3.31690287	      2.31486006	      5.49961629	      8.36669734	      6.28942129	     27.86269631	     18.88903326	      5.40515345	      3.70807855	      7.06452340	     17.42579883	     10.01902264	     11.57926789	     12.43605587	     25.17374656	     11.69893946	     53.74768163	     51.81588377	      5.70244227	      5.59778904	     13.59492121	      7.28326774	     18.85178633	      2.92031994	      8.88969022	      2.77938576	     36.98456310	     36.98456310	     13.76358434	     13.76358434	     31.10063485	     31.10063485	      2.76307435	     50.99597937	     -9.56042239	      5.21997485	     -0.02578839	      1.48581788	     -2.76307435	    -50.99597937	      9.56042239	     -1.74637766	      0.02558040	     -0.48301696	     -3.31599387	     20.97615968	     -3.40468921	      0.94473225	     -0.02138609	     -1.00501789	      3.31599387	    -20.97615968	      3.40468921	      0.28075727	      0.00368718	     -0.29758878	    111.45826788	    204.33242506	      8.68779603	     -8.02778239	      2.51693968	     43.00145626	   -111.45826788	   -204.33242506	     -8.68779603	      5.14615447	     -3.02328994	      5.87688190	    245.51320482	    248.48017900	    -42.19219235	     22.00570604	     -5.38591252	     96.12663968	   -245.51320482	   -248.48017900	     42.19219235	     -4.77542015	      5.79323069	      6.53389917	      0.00000000	      0.00000000	      0.00000000	      0.00000000	      0.00000000	      0.00000000	      0.00000000	      0.00000000	      0.00000000	      0.00000000	      0.00000000	      0.00000000	      0.00000000	      0.00000000	      0.00000000	      0.00000000	      0.00000000	      0.00000000	      0.00000000	      0.00000000	      0.00000000	      0.00000000	      0.00000000	      0.00000000	   -442.24784281	   -520.54543185	     78.59603020	    -10.08097574	     10.39206055	     11.74063437	    442.24784281	    520.54543185	    -78.59603020	     42.32811861	     -9.59393687	    174.99512026	      0.00000000	      0.00000000	      0.00000000	      0.00000000	      0.00000000	      0.00000000	      0.00000000	      0.00000000	      0.00000000	      0.00000000	      0.00000000	      0.00000000	      0.00000000	      0.00000000	    729.03681716	    385.98223448	     60.07129665	     39.96012477	      0.00000000	      0.00000000	      0.00000000	      0.00000000	      0.00000000	      0.00000000	      0.00000001	      0.00000000
      0.16033584	     11.69812502	      8.49849726	      9.14253054	      3.92096450	      4.55300803	      4.94338161	      0.00000000	    158.65539011	    141.21427746	    287.47238090	    128.38182771	      8.45992279	      6.08466633	      4.36795428	      3.70721432	      6.25774602	      5.58030539	      3.31002599	     95.27164473	      5.48776460	      8.34862762	      6.27563060	     27.82898417	     18.85058334	      5.39378543	      3.70251380	      7.04641739	     93.41840018	     49.07946996	     36.30917225	     54.46953081	      0.00000000	      0.00000000	      0.00000000	      0.00000000	      0.00000000	      0.00000000	     46.54972661	      3.39065927	      5.08003991	     31.60936273	     41.92591077	     10.43744324	     11.69812502	      8.49849726	      9.14253054	      3.92096450	      4.55300803	      4.94338161	     14.55083823	      6.30496077	     12.59304114	     10.73585465	      2.23702973	      8.45992279	      6.08466633	      4.36795428	      3.70721432	      6.25774602	      5.50409633	      3.31002599	      2.31003391	      5.48776460	      8.34862762	      6.27563060	     27.82898417	     18.85058334	      5.39378543	      3.70251380	      7.04641739	     17.38292072	      9.99687763	     11.55327264	     12.40814439	     25.10847390	     11.66853611	     53.60949565	     51.75595742	      5.68702546	      5.58278178	     13.56205219	      7.26483313	     18.81258435	      2.91439716	      8.86700269	      2.77236794	     36.90825901	     36.90825901	     13.73292820	     13.73292820	     31.07281627	     31.07281627	      2.76307435	     50.99597937	     -9.56042239	      5.21997485	     -0.02578839	      1.48581788	     -2.76307435	    -50.99597937	      9.56042239	     -1.74637766	      0.02558040	     -0.48301696	     -3.31599387	     20.97615968	     -3.40468921	      0.94473225	     -0.02138609	     -1.00501789	      3.31599387	    -20.97615968	      3.40468921	      0.28075727	      0.00368718	     -0.29758878	    122.87785112	    196.83665831	      6.49147164	     -6.96331926	      2.74094286	     47.75435806	   -122.87785112	   -196.83665831	     -6.49147164	      4.92861879	     -3.22539350	      5.45041371	    268.20093989	    234.81739207	    -47.34261095	     23.80012717	     -5.89011712	    105.39402769	   -268.20093989	   -234.81739207	     47.34261095	     -4.57146244	      6.36345278	      5.88613394	      0.00000000	      0.00000000	      0.00000000	      0.00000000	      0.00000000	      0.00000000	      0.00000000	      0.00000000	      0.00000000	      0.00000000	      0.00000000	      0.00000000	      0.00000000	      0.00000000	      0.00000000	      0.00000000	      0.00000000	      0.00000000	      0.00000000	      0.00000000	      0.00000000	      0.00000000	      0.00000000	      0.00000000	   -441.10695562	   -480.33198257	     80.86009999	     -9.39437182	     10.43391058	     10.42972834	    441.10695562	    480.33198257	    -80.86009999	     42.44480281	     -9.58085807	    174.93392323	      0.00000000	      0.00000000	      0.00000000	      0.00000000	      0.00000000	      0.00000000	      0.00000000	      0.00000000	      0.00000000	      0.00000000	      0.00000000	      0.00000000	      0.00000000	      0.00000000	    730.75494609	    375.79298150	     57.13624263	     35.62612749	      0.00000000	      0.00000000	      0.00000000	      0.00000000	      0.00000000	      0.00000000	      0.00000001	      0.00000000
      0.16096538	     11.66358836	      8.47504231	      9.11699769	      3.91058395	      4.54164390	      4.92881900	      0.00000000	    158.99247640	    141.23072802	    289.84735060	    128.67009942	      8.43630738	      6.06870714	      4.35594985	      3.69679109	      6.23885586	      5.57486803	      3.30120010	     95.49578040	      5.47255540	      8.32543883	      6.25793325	     27.78572485	     18.80124509	      5.37919590	      3.69537365	      7.02317114	     76.34668389	     48.15144322	     36.49537905	     54.27595075	      0.00000000	      0.00000000	      0.00000000	      0.00000000	      0.00000000	      0.00000000	     46.57256218	      3.36889643	      5.08100271	      8.36741230	     42.18729846	     10.50055810	     11.66358836	      8.47504231	      9.11699769	      3.91058395	      4.54164390	      4.92881900	     14.50388341	      6.28647515	     12.55292956	     10.70678146	      2.23113492	      8.43630738	      6.06870714	      4.35594985	      3.69679109	      6.23885586	      5.49237542	      3.30120010	      2.30384001	      5.47255540	      8.32543883	      6.25793325	     27.78572485	     18.80124509	      5.37919590	      3.69537365	      7.02317114	     17.32788557	      9.96846078	     11.51991525	     12.37232915	     25.02465106	     11.62949295	     53.43208119	     51.67904967	      5.66722928	      5.56351449	     13.51986698	      7.24116941	     18.76226259	      2.90679705	      8.83786416	      2.76335438	     36.81032780	     36.81032780	     13.69358722	     13.69358722	     31.03712061	     31.03712061	      2.76307435	     50.99597937	     -9.56042239	      5.21997485	     -0.02578839	      1.48581788	     -2.76307435	    -50.99597937	      9.56042239	     -1.74637766	      0.02558040	     -0.48301696	     -3.31599387	     20.97615968	     -3.40468921	      0.94473225	     -0.02138609	     -1.00501789	      3.31599387	    -20.97615968	      3.40468921	      0.28075727	      0.00368718	     -0.29758878	    129.05904671	    192.83129163	      4.52129909	     -6.05994095	      2.86322815	     50.31353967	   -129.05904671	   -192.83129163	     -4.52129909	      4.79372910	     -3.31871184	      5.25624175	    287.05536386	    232.78275713	    -47.29589470	     23.72281507	     -6.25566898	    112.98621303	   -287.05536386	   -232.78275713	     47.29589470	     -4.50469353	      6.67448391	      5.71664268	      0.00000000	      0.00000000	      0.00000000	      0.00000000	      0.00000000	      0.00000000	      0.00000000	      0.00000000	      0.00000000	      0.00000000	      0.00000000	      0.00000000	      0.00000000	      0.00000000	      0.00000000	      0.00000000	      0.00000000	      0.00000000	      0.00000000	      0.00000000	      0.00000000	      0.00000000	      0.00000000	      0.00000000	   -440.41742398	   -461.21599286	     80.65553974	     -9.01314552	     10.38775358	      9.91764533	    440.41742398	    461.21599286	    -80.65553974	     41.95709841	     -9.54316627	    174.80157029	      0.00000000	      0.00000000	      0.00000000	      0.00000000	      0.00000000	      0.00000000	      0.00000000	      0.00000000	      0.00000000	      0.00000000	      0.00000000	      0.00000000	      0.00000000	      0.00000000	    734.57682943	    370.09403640	     52.53959206	     30.49495317	      0.00000000	      0.00000000	      0.00000000	      0.00000000	      0.00000000	      0.00000000	      0.00000001	      0.00000000
      0.16102833	     11.66015083	      8.47270773	      9.11445631	      3.90955067	      4.54051277	      4.92736954	      0.00000000	    159.02714358	    141.25024432	    290.06450061	    128.68595101	      8.43395686	      6.06711856	      4.35475500	      3.69575365	      6.23697566	      5.57337927	      3.30032159	     95.51077041	      5.47104159	      8.32313079	      6.25617180	     27.78141935	     18.79633460	      5.37774371	      3.69466304	      7.02085671	     77.78549681	     48.11036394	     36.45563324	     54.29754313	      0.00000000	      0.00000000	      0.00000000	      0.00000000	      0.00000000	      0.00000000	     46.57613617	      3.36652394	      5.08088841	     19.49109030	     42.21501997	     10.50738287	     11.66015083	      8.47270773	      9.11445631	      3.90955067	      4.54051277	      4.92736954	     14.49920898	      6.28463523	     12.54893664	     10.70388762	      2.23054815	      8.43395686	      6.06711856	      4.35475500	      3.69575365	      6.23697566	      5.49120881	      3.30032159	      2.30322348	      5.47104159	      8.32313079	      6.25617180	     27.78141935	     18.79633460	      5.37774371	      3.69466304	      7.02085671	     17.32240718	      9.96563249	     11.51659525	     12.36876459	     25.01630433	     11.62560524	     53.41441769	     51.67139457	      5.66525820	      5.56159626	     13.51566790	      7.23881369	     18.75725307	      2.90604063	      8.83496245	      2.76245676	     36.80057981	     36.80057981	     13.68967151	     13.68967151	     31.03356797	     31.03356797	      2.76307435	     50.99597937	     -9.56042239	      5.21997485	     -0.02578839	      1.48581788	     -2.76307435	    -50.99597937	      9.56042239	     -1.74637766	      0.02558040	     -0.48301696	     -3.31599387	     20.97615968	     -3.40468921	      0.94473225	     -0.02138609	     -1.00501789	      3.31599387	    -20.97615968	      3.40468921	      0.28075727	      0.00368718	     -0.29758878	    129.36454774	    192.19791252	      4.25987816	     -5.93967991	      2.86674835	     50.44437686	   -129.36454774	   -192.19791252	     -4.25987816	      4.77504624	     -3.31689743	      5.23327723	    286.23924043	    231.81159343	    -47.87314428	     23.93238950	     -6.23222243	    112.66599215	   -286.23924043	   -231.81159343	     47.87314428	     -4.48849931	      6.66725493	      5.69786341	      0.00000000	      0.00000000	      0.00000000	      0.00000000	      0.00000000	      0.00000000	      0.00000000	      0.00000000	      0.00000000	      0.00000000	      0.00000000	      0.00000000	      0.00000000	      0.00000000	      0.00000000	      0.00000000	      0.00000000	      0.00000000	      0.00000000	      0.00000000	      0.00000000	      0.00000000	      0.00000000	      0.00000000	   -440.85723091	   -459.16596957	     80.60040909	     -8.97146317	     10.39055701	      9.85292925	    440.85723091	    459.16596957	    -80.60040909	     41.89071634	     -9.54901191	    174.99848570	      0.00000000	      0.00000000	      0.00000000	      0.00000000	      0.00000000	      0.00000000	      0.00000000	      0.00000000	      0.00000000	      0.00000000	      0.00000000	      0.00000000	      0.00000000	      0.00000000	    734.94465137	    369.57525993	     52.29947801	     30.18662166	      0.00000000	      0.00000000	      0.00000000	      0.00000000	      0.00000000	      0.00000000	      0.00000001	      0.00000000
